<?xml version="1.0" standalone="no"?>
<!DOCTYPE svg PUBLIC "-//W3C//DTD SVG 20010904//EN"
 "http://www.w3.org/TR/2001/REC-SVG-20010904/DTD/svg10.dtd">
<svg version="1.0" xmlns="http://www.w3.org/2000/svg"
 width="1119.000000pt" height="1119.000000pt" viewBox="0 0 1119.000000 1119.000000"
 preserveAspectRatio="xMidYMid meet">
<metadata>
Created by potrace 1.14, written by Peter Selinger 2001-2017
</metadata>
<g transform="translate(0.000000,1119.000000) scale(0.100000,-0.100000)"
fill="#000000" stroke="none">
<path d="M2 8826 l3 -2115 34 -35 c43 -44 43 -71 0 -162 l-33 -69 -2 -197 c-2
-114 1 -209 7 -225 15 -43 52 -79 108 -108 29 -14 54 -32 58 -40 8 -22 22 -18
33 10 12 31 22 31 86 1 35 -16 58 -35 74 -62 13 -22 30 -44 38 -51 9 -8 14
-29 14 -60 -1 -29 4 -53 14 -64 11 -13 12 -22 4 -44 -6 -15 -15 -48 -21 -74
-5 -25 -23 -63 -39 -83 -32 -40 -39 -75 -16 -84 20 -8 31 0 124 85 85 77 97
100 93 173 -3 59 26 81 101 76 35 -3 63 -10 68 -18 14 -23 83 -5 149 39 34 23
61 46 61 51 0 19 77 57 121 59 8 1 23 16 32 34 10 17 26 47 37 65 11 18 22 47
25 64 6 34 66 98 92 98 13 0 13 3 3 15 -10 12 -10 18 0 30 17 21 7 105 -14
121 -12 8 -15 21 -11 44 15 83 82 154 200 210 132 63 226 73 372 39 80 -18
185 -79 202 -117 15 -32 -14 -86 -96 -174 -36 -40 -72 -87 -81 -105 -15 -31
-14 -37 7 -101 13 -37 34 -88 47 -114 13 -26 24 -56 24 -67 0 -11 10 -27 23
-36 56 -40 95 -62 118 -69 13 -3 31 -12 39 -19 28 -22 67 -81 74 -112 4 -16
27 -62 51 -101 145 -233 121 -346 -90 -416 -65 -21 -66 -22 -62 -52 7 -44 28
-99 43 -111 7 -5 15 -23 18 -40 5 -28 29 -55 49 -55 5 0 40 -18 78 -41 63 -38
71 -40 101 -30 43 15 158 93 158 107 0 6 11 16 24 22 19 8 24 17 20 36 -3 20
-1 23 16 19 21 -6 28 11 10 22 -8 5 -8 11 0 20 6 8 12 28 12 45 1 17 5 33 9
36 10 6 17 -55 24 -211 2 -71 8 -162 11 -201 l6 -72 -31 -18 c-17 -10 -31 -21
-31 -25 0 -16 -72 -39 -120 -39 -104 0 -154 -54 -135 -147 7 -34 11 -61 14
-115 1 -23 27 -23 94 -1 49 16 130 63 142 84 22 35 55 -22 55 -96 0 -23 7 -62
15 -85 8 -23 15 -52 15 -64 0 -12 11 -37 23 -56 13 -19 23 -46 22 -60 -2 -14
1 -30 6 -35 4 -6 4 -17 -1 -25 -13 -20 -12 -67 0 -75 6 -4 10 -39 9 -80 -1
-40 1 -77 4 -82 3 -5 9 -32 13 -59 3 -27 12 -60 19 -74 9 -18 13 -83 13 -230
0 -274 15 -392 74 -560 123 -353 426 -644 937 -900 288 -145 613 -247 911
-286 19 -2 50 -9 70 -14 38 -9 112 -17 255 -25 50 -3 104 -10 121 -16 17 -5
41 -11 52 -14 32 -6 92 14 92 30 0 8 7 15 15 15 9 0 15 -9 15 -25 0 -21 5 -25
28 -25 l27 1 -25 14 -25 14 25 9 c14 5 30 8 36 5 6 -2 17 3 24 12 7 8 19 15
27 15 8 0 28 14 43 30 16 17 38 30 52 30 12 0 34 12 47 25 13 14 29 25 36 25
7 0 15 4 17 8 2 4 18 18 36 31 17 12 32 31 32 40 0 11 12 24 30 31 21 9 30 19
30 36 0 34 0 35 16 73 13 30 12 35 -3 47 -20 15 -14 17 36 14 l33 -2 -6 49
c-4 26 -7 56 -7 66 0 30 54 105 86 118 28 11 29 12 8 16 -28 5 -29 16 -3 34
12 8 22 30 26 54 7 46 7 46 30 49 19 3 33 26 15 26 -6 0 -11 5 -11 10 0 13 81
51 92 44 4 -3 8 -1 8 4 0 5 -16 22 -35 37 -24 18 -33 31 -27 38 5 7 8 43 7 81
-2 51 -7 72 -19 81 -24 18 -20 25 18 25 18 0 39 6 45 14 14 16 4 46 -15 46
-21 0 -17 38 5 50 11 5 36 10 55 10 25 0 38 6 46 20 6 11 15 18 21 15 5 -4 9
5 9 19 0 14 -5 26 -12 26 -9 0 -9 3 0 12 7 7 30 11 52 9 32 -2 40 1 40 14 0
10 11 30 25 47 14 16 25 36 25 44 0 8 5 14 10 14 6 0 10 12 10 26 0 14 5 34
10 45 8 15 7 19 -4 19 -22 0 -49 55 -33 67 36 28 77 24 77 -8 0 -21 15 -25 26
-7 14 22 3 82 -22 126 -14 23 -22 47 -19 52 11 18 47 11 52 -10 11 -40 37 -16
35 32 -1 23 6 34 33 49 18 11 35 28 38 39 3 11 15 20 33 22 30 3 32 11 19 55
-6 17 -2 22 16 25 14 2 29 15 37 31 13 27 50 49 73 44 6 -1 17 14 24 33 28 76
70 143 90 146 11 2 27 13 35 25 8 12 28 35 43 50 16 16 26 33 22 39 -4 6 -11
24 -15 41 l-9 31 46 -7 c48 -7 50 -5 29 45 -4 10 7 22 35 38 43 25 44 27 23
99 -5 18 -3 21 14 16 19 -5 46 24 40 44 -1 4 3 18 10 30 11 20 20 62 21 106 1
9 7 17 15 17 8 0 22 7 31 16 14 15 14 18 0 33 -8 10 -15 25 -15 34 0 9 -5 19
-10 22 -15 9 -50 -4 -50 -19 0 -8 -10 -11 -30 -8 -29 4 -30 3 -25 -26 7 -43
22 -79 35 -87 21 -13 -9 -36 -31 -24 -25 13 -38 4 -32 -21 6 -22 -12 -28 -20
-7 -3 9 -16 12 -37 9 -25 -4 -31 -1 -28 9 3 8 11 13 17 11 15 -3 14 10 -5 36
-22 32 -43 27 -60 -13 -9 -23 -21 -35 -33 -35 -29 0 -61 46 -57 82 2 18 -2 32
-10 35 -8 3 -14 12 -14 19 0 8 -6 17 -14 20 -8 3 -12 11 -10 19 3 8 -7 17 -27
24 -41 14 -39 15 -39 -12 0 -28 17 -47 42 -47 22 0 25 -54 4 -94 -14 -27 -14
-97 -1 -179 7 -44 6 -47 -11 -41 -10 4 -34 18 -52 31 -17 13 -36 22 -41 18
-18 -10 -23 16 -8 39 18 27 7 56 -12 32 -16 -19 -17 -66 -2 -94 6 -12 25 -29
42 -38 17 -8 29 -17 27 -19 -5 -6 -89 10 -153 28 -27 8 -56 12 -62 10 -17 -7
-17 -30 -1 -36 10 -3 10 -7 1 -17 -8 -9 -17 -5 -39 19 -20 23 -36 31 -61 31
-20 0 -32 4 -28 10 3 6 -3 10 -15 10 -22 0 -26 7 -34 53 -7 38 -24 57 -51 57
-12 0 -25 3 -29 7 -4 5 -13 8 -19 8 -7 0 -13 17 -15 38 l-3 38 36 -7 c35 -6
36 -5 27 13 -16 29 -33 41 -68 46 -49 8 -74 29 -85 72 -5 22 -14 50 -19 63 -8
19 -7 22 15 22 17 0 25 -6 26 -17 1 -26 7 -54 12 -59 11 -12 37 31 37 61 0 25
5 35 20 40 28 9 44 -3 29 -21 -21 -25 -2 -27 31 -2 l32 23 -34 28 c-18 15 -43
30 -55 33 -24 6 -32 24 -11 24 7 0 2 7 -10 16 -16 11 -22 25 -22 54 0 21 -3
45 -6 54 -10 27 -24 18 -24 -16 0 -25 -3 -29 -10 -18 -5 8 -10 40 -10 71 0 40
-6 63 -19 81 -11 13 -21 39 -24 57 -6 37 -17 53 -24 34 -6 -17 -20 -17 -20 0
0 7 -9 27 -20 43 -42 61 -98 147 -111 169 -7 13 -31 40 -54 59 -23 20 -36 36
-30 36 22 0 12 42 -18 71 -23 23 -28 35 -22 52 9 25 9 31 -1 68 -4 15 -16 29
-28 32 -18 5 -20 2 -14 -16 14 -44 17 -87 6 -87 -6 0 -11 6 -11 14 0 8 -13 23
-29 32 -31 18 -45 51 -35 78 4 12 0 16 -16 16 -11 0 -19 4 -15 9 3 6 -4 18
-15 29 -18 17 -24 34 -29 89 0 7 -11 12 -23 10 -19 -2 -24 4 -26 31 -3 32 -35
89 -67 124 -9 9 -18 22 -19 30 -1 7 -10 29 -21 48 -10 19 -20 48 -22 64 -4 34
-42 103 -73 131 -19 17 -20 20 -4 25 14 5 12 10 -15 29 -18 13 -35 20 -39 17
-9 -10 -8 -83 2 -126 7 -29 6 -33 -5 -22 -7 6 -17 12 -21 12 -12 0 -10 -34 3
-47 6 -6 12 -36 13 -68 2 -32 8 -60 15 -65 9 -5 6 -14 -13 -33 -22 -22 -32
-50 -27 -79 0 -5 -7 -8 -16 -8 -10 0 -27 -7 -37 -15 -40 -30 -101 -15 -144 34
-12 14 -29 33 -37 42 -8 9 -15 21 -15 28 0 18 -33 77 -37 66 -2 -6 -34 19 -71
55 -59 57 -100 84 -190 124 -13 6 -30 23 -38 38 -13 25 -17 27 -36 17 -12 -7
-43 -34 -68 -60 -37 -38 -54 -49 -79 -49 -17 0 -31 4 -31 8 0 13 -47 32 -80
32 -27 0 -36 7 -105 78 -41 42 -100 92 -109 92 -7 0 -11 22 -11 55 0 59 -15
86 -38 67 -9 -8 -17 -8 -24 -1 -6 6 -18 3 -35 -11 -15 -11 -31 -20 -37 -20 -5
0 -14 -7 -19 -16 -11 -20 -46 -11 -97 27 -22 16 -55 38 -72 50 -18 12 -33 25
-33 30 0 5 -11 9 -25 9 -19 0 -31 9 -43 31 -18 32 -20 32 -109 13 -27 -5 -33
-3 -33 11 0 14 -3 15 -15 5 -8 -6 -19 -8 -26 -4 -22 13 -71 5 -91 -15 -10 -12
-21 -21 -24 -21 -21 0 -94 24 -94 31 0 5 -6 6 -14 3 -8 -3 -17 0 -21 5 -12 20
-25 1 -25 -35 0 -24 -4 -34 -12 -31 -7 2 -13 9 -13 15 0 19 -13 23 -34 10 -29
-17 -41 1 -41 62 0 33 3 41 10 30 5 -8 10 -23 10 -32 0 -10 4 -18 9 -18 8 0 5
61 -4 88 -6 17 -40 15 -55 -3 -19 -22 -100 -65 -125 -65 -30 0 -36 -9 -24 -32
8 -14 7 -28 0 -46 -6 -15 -12 -39 -14 -53 -1 -14 -14 -37 -28 -50 -14 -13 -31
-33 -38 -44 -22 -36 -3 59 24 120 13 31 27 71 31 90 3 20 10 38 15 41 14 8 11
52 -7 85 -12 24 -19 29 -36 23 -11 -3 -39 0 -61 7 -31 10 -41 11 -45 1 -4 -14
-55 -28 -132 -37 -30 -4 -62 -11 -70 -15 -28 -15 -104 14 -168 63 -34 27 -62
52 -62 56 0 12 -84 51 -111 52 -13 0 -61 -3 -105 -7 l-82 -7 -47 37 c-53 40
-79 44 -143 19 -36 -14 -48 -14 -64 -4 -11 7 -32 15 -47 18 -36 6 -71 41 -71
71 0 65 22 102 96 160 50 40 69 60 63 69 -6 6 -12 30 -15 54 -9 70 -58 149
-95 149 -22 0 -86 29 -125 57 -35 25 -42 22 -69 -31 -28 -55 -102 -96 -164
-90 -25 2 -113 6 -196 9 -170 5 -226 10 -306 31 -94 23 -148 19 -187 -16 -27
-25 -31 -33 -22 -50 6 -11 8 -31 4 -45 -6 -23 -11 -25 -59 -25 -75 0 -98 21
-89 78 4 24 19 58 37 80 16 20 52 83 79 140 77 159 140 214 357 307 43 18 103
38 134 45 40 8 66 21 87 41 155 156 441 211 760 148 58 -12 109 -53 111 -90 1
-10 2 -25 3 -31 8 -49 -101 -164 -189 -204 -30 -13 -55 -28 -55 -34 0 -5 -6
-10 -14 -10 -8 0 -30 -15 -51 -33 l-37 -33 54 -24 c29 -13 65 -32 79 -43 34
-24 62 -19 173 32 49 22 95 41 103 41 7 0 53 39 101 86 89 88 104 98 178 114
56 13 71 6 85 -40 6 -21 21 -50 33 -65 26 -32 34 -30 111 34 98 81 176 101
260 68 37 -15 87 -22 190 -28 159 -8 234 -27 277 -69 32 -32 32 -33 -3 -150
-10 -36 -21 -78 -23 -95 -3 -16 -12 -46 -19 -65 -8 -19 -19 -53 -25 -75 -19
-71 -45 -139 -69 -177 -23 -37 -23 -38 -3 -38 11 0 20 6 20 13 0 17 59 44 88
39 14 -2 29 -17 40 -40 29 -58 46 -82 59 -82 15 0 17 -16 4 -25 -10 -5 -7 -36
3 -54 3 -5 21 -12 40 -15 19 -4 39 -13 46 -21 6 -7 26 -17 43 -20 18 -4 60
-16 95 -27 36 -11 73 -17 88 -14 14 4 29 4 35 0 5 -3 88 -7 184 -8 95 -1 176
-4 179 -6 12 -12 -14 -33 -43 -34 -30 -1 -45 -16 -16 -16 31 0 13 -16 -57 -52
-89 -45 -169 -68 -234 -68 -55 0 -87 -13 -59 -24 9 -3 29 -6 43 -6 15 0 47 -6
72 -14 25 -7 72 -16 105 -20 33 -3 75 -10 93 -15 28 -8 32 -7 32 10 0 10 5 20
10 20 6 1 16 2 23 3 6 1 25 -2 40 -7 21 -7 25 -12 17 -22 -9 -11 -1 -12 41 -9
39 3 60 11 86 34 18 17 46 31 61 31 15 1 34 3 42 4 8 1 25 3 38 4 12 0 22 5
22 10 0 5 14 33 32 61 28 45 34 50 44 35 11 -15 13 -14 16 7 2 13 10 24 18 24
8 1 21 2 28 3 7 0 11 5 7 10 -7 13 53 81 72 81 21 0 6 19 -25 33 l-27 11 28 4
c15 2 28 8 28 13 1 5 2 14 3 21 0 6 9 12 19 14 25 3 67 32 67 45 0 7 7 8 18 4
9 -4 44 -8 78 -9 48 -1 66 -6 91 -26 17 -14 43 -33 59 -42 55 -33 69 -43 77
-55 4 -7 17 -13 27 -13 11 0 20 -6 20 -14 0 -7 7 -19 15 -26 8 -7 17 -28 21
-49 4 -20 12 -45 17 -56 6 -11 12 -39 13 -62 0 -23 7 -50 15 -59 8 -9 12 -27
11 -39 -2 -18 8 -31 42 -55 26 -17 56 -41 69 -53 81 -79 187 -167 201 -167 9
0 27 -6 39 -14 22 -15 60 -24 105 -25 32 -1 27 -21 -5 -22 -25 0 -26 -1 -8 -9
11 -4 55 -15 97 -25 43 -9 98 -27 122 -39 26 -13 50 -19 58 -15 7 4 15 3 19
-3 4 -6 24 -12 45 -13 22 -1 58 -6 81 -10 23 -4 67 -4 98 0 56 7 56 7 39 26
-18 20 -17 20 6 15 14 -3 35 -8 47 -12 18 -5 23 -1 29 22 4 16 11 35 17 42 7
9 3 12 -18 12 -22 0 -25 3 -16 13 11 14 -3 37 -24 37 -5 0 -23 12 -39 27 -16
14 -45 30 -65 34 -39 8 -107 32 -116 41 -3 3 8 19 24 36 24 26 31 29 40 18 7
-8 31 -14 59 -14 75 0 161 -39 194 -88 28 -42 71 -69 127 -80 26 -6 30 -4 25
10 -3 9 -1 16 5 16 7 0 9 10 5 26 l-7 26 40 -20 c21 -11 61 -23 88 -26 27 -3
64 -13 82 -23 40 -21 50 -12 35 30 -7 19 -12 44 -12 56 0 12 -5 31 -11 42 -9
19 -8 20 18 17 22 -2 33 -13 53 -53 50 -97 63 -115 88 -115 19 0 23 4 19 20
-3 11 -1 20 3 20 4 0 6 9 3 21 -4 15 0 22 16 26 25 6 28 38 7 88 -8 18 -12 35
-10 38 3 3 -6 33 -21 66 -14 34 -25 67 -23 74 6 30 -57 107 -111 136 -19 11
-22 9 -27 -19 -8 -38 -14 -38 -45 3 -33 43 -51 85 -54 125 -1 18 -11 42 -23
55 -22 24 -44 72 -36 80 3 2 32 -2 64 -11 56 -15 60 -15 79 3 16 14 18 21 10
32 -6 7 -17 13 -24 13 -7 0 -18 6 -24 14 -9 10 -8 15 3 19 8 3 22 17 31 31 22
34 8 77 -42 128 -21 21 -33 38 -27 38 5 0 15 -5 22 -12 6 -6 14 -9 18 -6 8 9
-63 108 -108 149 -22 20 -41 47 -43 60 -1 13 -6 32 -10 42 -6 13 -3 16 9 11 9
-3 16 -1 16 5 0 19 -63 70 -100 82 -19 6 -52 22 -73 36 -22 13 -51 23 -65 22
-35 -3 -114 21 -127 39 -8 10 -17 11 -39 2 -24 -9 -31 -7 -46 10 -9 11 -34 27
-54 35 -20 8 -36 20 -36 25 0 6 -13 10 -30 10 -16 0 -55 11 -86 25 -36 16 -61
22 -68 16 -17 -14 -88 -5 -137 17 -24 11 -54 18 -67 16 -13 -3 -30 0 -37 6 -8
6 -26 15 -42 19 -23 6 -29 14 -33 47 -5 36 -8 39 -41 45 -20 3 -44 2 -55 -2
-16 -6 -15 -8 8 -8 30 -1 49 -20 21 -22 -10 -1 -24 -1 -31 0 -10 2 -10 -4 2
-27 22 -43 9 -54 -55 -46 -51 7 -81 8 -121 5 -30 -2 -20 -21 11 -21 33 0 51
-18 53 -51 2 -45 -1 -50 -27 -43 -31 8 -33 -8 -4 -28 20 -13 21 -15 5 -31 -19
-19 -143 -26 -131 -7 3 6 7 29 7 52 0 31 -5 45 -22 58 -31 24 -21 45 35 72 44
21 58 38 32 38 -7 0 -18 -5 -25 -12 -6 -6 -13 -10 -14 -7 -2 2 -13 19 -26 37
-23 33 -21 58 4 48 22 -8 17 9 -12 43 -14 17 -20 31 -14 31 7 0 23 9 37 20 18
14 29 17 38 10 21 -17 46 0 43 28 -4 29 -7 32 -115 73 -89 34 -119 33 -109 -4
3 -12 1 -28 -3 -36 -7 -11 -15 -10 -40 8 -27 19 -32 20 -37 7 -3 -9 -4 -23 0
-31 10 -28 -14 -15 -34 18 -23 37 -25 69 -8 97 10 15 9 22 -4 37 -9 10 -18 33
-21 50 -5 30 -3 32 18 27 16 -4 24 0 29 12 6 16 0 24 -29 39 -6 3 -5 7 3 11
10 5 10 9 1 20 -8 10 -8 18 0 27 8 11 5 13 -20 9 -22 -3 -36 2 -53 19 -40 40
-56 51 -69 46 -22 -8 -65 22 -76 54 -15 42 -13 48 4 25 17 -22 20 -21 28 15 6
22 3 28 -15 32 -20 6 -32 -2 -41 -27 -7 -20 -27 7 -27 36 0 27 3 30 23 24 12
-4 35 -9 51 -13 27 -6 29 -4 23 17 -3 13 -1 30 5 37 8 10 8 17 -1 26 -10 9
-17 7 -32 -12 -10 -13 -19 -19 -20 -15 -3 49 -10 87 -19 104 -7 13 -7 26 -2
37 5 9 7 24 4 35 -3 12 3 25 16 34 14 9 19 23 18 44 -2 33 -26 67 -26 37 0
-23 -12 -21 -28 3 -13 21 -13 21 54 44 15 6 23 50 13 69 -5 8 -22 14 -40 13
-27 -1 -36 -8 -55 -41 -20 -36 -71 -74 -194 -143 -8 -5 -22 -22 -30 -38 -9
-16 -22 -30 -28 -30 -7 -1 -16 -2 -22 -3 -5 0 -10 -7 -10 -15 0 -16 -21 -26
-56 -26 -18 0 -24 -5 -22 -17 2 -12 -4 -19 -19 -21 -13 -2 -23 -7 -23 -12 0
-4 -16 -11 -35 -14 -23 -5 -35 -12 -35 -23 0 -12 -3 -14 -11 -6 -17 17 7 51
38 55 16 2 28 9 29 18 0 17 -27 70 -37 70 -9 0 -29 49 -21 53 4 2 25 5 47 6
61 4 77 17 35 28 -39 10 -117 -4 -143 -26 -14 -11 -18 -11 -23 3 -4 9 1 25 10
35 9 10 16 29 16 43 0 25 27 58 48 58 11 0 16 14 13 34 -1 5 7 18 17 30 11 11
23 32 27 46 8 28 53 80 69 80 6 0 28 16 50 35 21 19 42 32 47 29 5 -3 35 18
67 46 31 29 67 57 80 63 12 5 22 14 22 18 0 4 22 15 49 24 27 9 68 29 90 45
24 18 43 25 46 19 4 -5 16 -7 28 -3 40 13 145 12 172 -2 23 -12 29 -12 41 1
16 16 36 11 75 -18 15 -11 51 -21 85 -24 32 -3 69 -13 82 -21 14 -9 35 -13 57
-9 21 3 35 1 38 -6 3 -9 13 -9 40 0 30 9 40 8 69 -10 18 -11 49 -22 68 -24 19
-3 42 -9 50 -13 8 -4 32 -8 52 -8 20 0 61 -11 90 -25 29 -13 70 -27 92 -30 21
-3 46 -13 55 -21 9 -8 48 -20 86 -26 39 -7 77 -18 85 -25 30 -25 64 -38 113
-42 28 -3 67 -14 88 -24 57 -30 107 -36 123 -14 13 18 14 18 20 -3 9 -28 33
-29 41 -2 8 24 23 17 35 -16 6 -15 18 -24 32 -25 13 0 32 -2 43 -4 11 -2 54
-6 95 -9 64 -5 78 -9 95 -31 26 -31 35 -32 28 -2 -4 16 -3 19 5 12 6 -6 12
-24 14 -41 2 -28 7 -32 61 -48 45 -14 61 -15 72 -6 12 10 22 6 50 -19 25 -22
46 -31 70 -31 34 0 71 -32 59 -52 -7 -11 12 -17 78 -22 73 -5 79 -9 72 -53 -5
-34 -4 -35 18 -29 54 16 94 17 121 3 16 -8 42 -13 58 -10 24 3 29 1 29 -15 0
-11 7 -25 15 -32 8 -7 15 -18 15 -25 0 -7 9 -15 20 -18 11 -3 20 -12 20 -20 0
-9 5 -28 12 -44 6 -15 13 -37 15 -47 2 -11 7 -24 12 -30 8 -11 6 -46 -4 -75
-3 -7 -12 -10 -20 -7 -8 3 -15 1 -15 -4 0 -10 53 -72 89 -104 58 -52 129 -160
131 -197 0 -9 10 -19 22 -22 l22 -6 -22 -24 c-12 -13 -22 -35 -22 -49 0 -26
-23 -58 -41 -58 -18 0 -8 -18 14 -24 26 -6 51 -52 34 -63 -11 -7 -72 -21 -127
-30 -50 -8 -63 -21 -57 -60 6 -36 1 -42 -38 -45 -21 -2 -25 -7 -23 -27 2 -17
11 -27 29 -32 27 -7 51 1 50 17 -2 20 25 7 37 -18 7 -16 17 -28 23 -28 18 0 9
-49 -13 -64 -32 -22 -45 -20 -23 4 24 27 10 41 -48 47 -53 6 -71 -11 -38 -36
14 -11 23 -30 25 -56 1 -21 8 -41 15 -43 21 -7 41 -33 41 -53 0 -10 5 -19 10
-19 6 0 10 -11 10 -25 0 -16 6 -25 15 -25 20 0 19 -10 -2 -27 -16 -13 -15 -14
15 -10 37 4 46 -6 57 -67 8 -38 7 -39 -19 -34 -20 4 -26 2 -22 -8 4 -11 -1
-13 -22 -8 -31 8 -37 12 -37 26 0 6 -6 13 -13 16 -31 10 -4 -33 38 -63 25 -17
46 -37 46 -43 1 -7 2 -16 3 -21 0 -5 14 -14 31 -21 34 -14 90 -68 90 -86 0 -6
-13 -22 -30 -35 -22 -18 -28 -29 -23 -47 3 -12 0 -29 -7 -36 -8 -11 -9 -20 0
-35 6 -12 8 -21 5 -21 -3 0 -1 -10 6 -21 9 -17 13 -19 19 -8 5 7 7 16 4 20 -2
4 0 10 6 14 9 5 15 -15 11 -37 0 -5 10 -8 24 -8 14 0 29 -8 35 -20 15 -27 1
-99 -21 -113 -20 -12 -26 -37 -9 -37 11 0 34 -79 25 -89 -7 -6 -12 -7 -40 -10
-21 -2 -19 -19 4 -26 11 -3 18 -13 16 -23 -2 -9 -4 -20 -4 -24 -1 -5 -10 -8
-21 -8 -24 0 -25 -15 -5 -54 11 -20 12 -33 5 -40 -13 -13 -13 -89 1 -103 8 -8
8 -13 0 -17 -6 -4 -11 -2 -11 3 0 13 -37 15 -44 2 -4 -5 12 -26 34 -47 37 -35
39 -39 23 -56 -14 -16 -14 -18 1 -24 20 -8 21 -24 1 -24 -21 0 -19 -17 5 -47
11 -14 20 -33 20 -43 0 -9 9 -25 19 -34 12 -11 17 -25 13 -38 -3 -11 1 -24 9
-29 21 -13 32 -11 25 6 -3 9 3 24 13 34 17 17 21 17 34 4 12 -13 17 -10 35 21
12 19 24 51 28 70 6 33 8 35 38 28 57 -12 66 -11 326 34 47 8 96 17 109 19 29
5 62 -11 131 -66 41 -32 54 -38 61 -28 9 14 12 3 12 -43 0 -23 11 -23 32 -1
13 12 36 17 91 17 82 1 117 -16 143 -70 20 -39 26 -139 11 -192 -14 -55 -65
-110 -106 -115 -31 -5 -102 15 -113 30 -8 12 -53 43 -62 43 -6 0 -25 -65 -35
-120 -3 -14 -18 -67 -35 -119 -47 -147 -122 -287 -220 -408 -19 -23 -49 -69
-68 -102 -33 -59 -109 -144 -203 -228 l-47 -43 15 -42 c29 -84 15 -150 -28
-127 -10 6 -23 22 -29 36 -10 26 -21 25 -25 -3 -5 -34 -14 -43 -35 -39 -13 3
-26 10 -30 17 -6 10 -13 7 -29 -10 -11 -12 -24 -22 -29 -22 -4 0 -28 -16 -52
-35 -46 -36 -101 -59 -182 -74 -54 -10 -65 -3 -36 22 18 16 18 20 5 38 -8 12
-24 27 -35 36 -19 13 -20 16 -6 36 13 19 13 23 -5 42 -36 38 -66 130 -69 211
-1 11 -7 28 -14 38 -13 18 -15 17 -33 -11 -72 -111 -89 -134 -92 -124 -2 6
-12 11 -23 11 -18 0 -18 1 0 38 11 21 21 67 24 106 3 50 9 71 21 78 25 14 20
47 -9 54 -27 7 -56 0 -54 -13 5 -30 -3 -43 -26 -43 -27 0 -31 -10 -14 -41 14
-27 -3 -47 -47 -55 -36 -7 -56 -25 -36 -32 7 -2 12 -10 12 -19 0 -11 -7 -13
-30 -8 -18 4 -30 3 -30 -4 0 -14 12 -20 56 -27 46 -7 41 -4 46 -29 2 -16 -3
-21 -29 -23 -21 -2 -34 -10 -38 -23 -4 -10 -13 -19 -22 -19 -8 0 -20 -14 -26
-30 -16 -42 -35 -37 -58 16 -23 51 -46 54 -41 6 5 -43 -7 -75 -23 -68 -8 3
-26 1 -42 -3 -15 -4 -41 -4 -57 0 l-28 8 23 -25 c12 -13 40 -29 61 -34 21 -6
38 -16 38 -22 0 -7 13 -9 35 -5 34 6 34 5 28 -25 -3 -18 -2 -29 3 -27 5 3 20
10 34 16 14 6 43 19 65 29 42 18 60 35 75 72 7 16 18 22 42 22 l33 0 -32 20
c-53 32 -36 86 24 76 15 -2 35 -5 43 -5 29 -2 41 -19 54 -74 16 -69 44 -111
102 -156 24 -18 44 -38 44 -43 0 -5 -14 -29 -31 -54 -32 -47 -213 -400 -266
-519 -17 -38 -45 -110 -64 -160 -18 -49 -47 -129 -65 -177 -27 -70 -82 -260
-99 -337 -5 -22 -64 -310 -70 -341 -22 -113 -46 -282 -51 -361 -5 -77 -3 -106
11 -149 22 -66 71 -121 133 -149 62 -29 88 -44 110 -64 10 -10 22 -17 25 -17
4 0 19 -13 34 -28 36 -37 203 -151 266 -181 40 -19 57 -22 99 -17 28 4 62 16
76 27 14 10 36 19 50 19 25 0 112 -45 112 -58 0 -4 14 -23 31 -42 30 -34 31
-36 24 -116 l-6 -81 43 -36 c69 -59 131 -83 175 -66 12 4 42 24 68 43 26 20
53 36 60 36 8 0 19 9 25 20 6 11 8 20 4 20 -3 0 -1 7 6 15 7 8 29 15 49 15 20
0 42 5 48 11 20 20 34 0 18 -25 -14 -21 -14 -28 -1 -67 8 -23 22 -47 30 -51 9
-5 16 -17 16 -27 0 -35 73 -43 106 -12 13 12 36 19 62 19 86 1 92 9 98 120 2
41 9 81 16 89 11 13 4 14 -55 8 -70 -8 -78 -3 -51 26 34 37 -19 149 -71 149
-30 0 -55 25 -55 55 0 30 -8 35 -72 41 -75 7 -190 32 -235 50 -21 9 -61 31
-90 50 -54 36 -122 65 -158 68 -11 0 -42 -14 -69 -32 -52 -35 -88 -47 -110
-39 -58 23 -69 167 -17 220 5 5 44 9 89 11 73 1 84 5 133 37 100 66 230 113
346 123 54 5 161 -17 267 -54 87 -31 130 -36 366 -45 80 -3 157 -9 170 -13 47
-14 129 -62 140 -81 15 -30 45 -34 107 -16 37 11 69 14 92 9 20 -4 53 -8 74
-8 37 -2 57 -17 57 -43 0 -7 -5 -13 -12 -13 -9 0 -9 -3 -1 -11 26 -26 -12 -72
-73 -89 -24 -7 -44 -16 -44 -20 0 -5 -20 -18 -46 -30 -25 -12 -44 -24 -42 -26
2 -1 19 -6 37 -9 43 -7 51 -12 51 -31 0 -8 16 -22 35 -31 19 -9 35 -20 35 -25
0 -12 47 -28 64 -22 8 3 20 20 26 38 6 18 21 48 35 66 13 18 29 58 36 89 6 31
20 70 30 87 21 35 101 99 162 130 47 23 67 44 43 44 -9 0 -33 11 -54 25 -20
13 -53 26 -74 29 -47 6 -75 21 -83 46 -4 13 -15 20 -33 20 -20 0 -31 9 -44 33
-84 161 -85 172 -30 244 53 70 99 108 175 142 75 34 93 55 107 130 16 83 68
141 127 141 42 0 93 -17 111 -37 55 -59 91 -81 126 -76 84 11 89 15 126 89 20
39 36 81 37 93 2 30 38 75 125 161 55 53 79 70 100 70 25 0 28 4 28 33 0 22
-8 41 -21 53 -40 36 -61 93 -64 172 -2 77 -8 90 -43 97 -33 6 -39 11 -68 65
-15 28 -30 50 -33 50 -3 0 -16 8 -28 18 -21 16 -22 19 -8 57 16 46 20 136 6
151 -6 5 -13 25 -16 44 -3 19 -8 36 -10 38 -2 2 -40 -31 -84 -74 -45 -42 -89
-83 -99 -90 -22 -15 -84 -32 -139 -37 -50 -5 -69 11 -100 88 -28 68 -32 92
-38 223 -5 126 -16 160 -60 182 -54 28 -83 51 -88 70 -10 37 -147 56 -147 20
0 -4 -9 -10 -21 -13 -14 -4 -34 7 -70 39 -27 24 -66 51 -85 59 -34 14 -39 35
-9 35 8 0 38 24 67 53 29 30 69 62 88 72 56 28 70 49 70 102 0 37 6 54 24 75
14 14 33 41 43 60 54 101 80 120 135 97 25 -10 33 -9 57 9 30 22 56 28 176 37
88 7 130 13 159 21 17 6 18 15 11 129 -5 101 -4 128 9 153 16 32 112 122 159
150 33 20 34 36 3 104 -31 69 -36 94 -37 172 -1 51 3 71 20 94 11 16 18 32 14
35 -3 4 19 18 51 33 42 19 65 24 89 19 42 -9 91 -42 111 -76 27 -46 133 -137
168 -144 43 -10 58 -22 58 -51 0 -15 6 -24 15 -24 53 0 -50 -70 -112 -76 -16
-2 -58 -17 -95 -35 l-66 -32 47 -71 c47 -68 100 -174 116 -226 11 -36 82 -178
106 -212 12 -16 36 -57 53 -91 32 -62 65 -92 156 -147 22 -13 54 -37 70 -53
16 -16 33 -26 38 -23 4 2 9 252 11 555 l2 550 -33 20 c-77 46 -107 73 -127
117 -15 32 -20 56 -16 78 8 41 26 86 34 86 4 0 7 9 8 20 1 10 12 32 24 49 12
16 27 53 34 83 11 49 10 56 -11 99 -29 57 -69 106 -94 114 -13 4 -20 15 -20
30 0 13 -6 28 -14 32 -36 22 -45 113 -10 113 8 0 17 7 21 16 3 8 28 28 55 43
27 16 45 30 39 32 -16 6 -23 108 -9 146 9 25 18 33 36 33 14 0 36 12 51 28
l26 27 0 570 c0 647 -3 708 -41 765 -21 31 -26 52 -26 99 0 61 24 142 51 175
14 16 16 68 16 416 0 219 -3 401 -7 405 -3 4 -15 2 -25 -4 -11 -5 -57 -11
-103 -13 l-83 -3 -9 30 c-16 52 -41 105 -49 105 -5 0 -15 14 -24 30 -32 63
-116 22 -101 -50 3 -16 19 -42 36 -57 19 -18 32 -40 34 -61 5 -43 -29 -110
-59 -118 -49 -12 -202 23 -226 52 -11 13 -27 15 -103 9 -96 -8 -110 -11 -101
-25 9 -14 -121 -49 -200 -55 -38 -2 -134 -5 -212 -5 -112 -1 -148 2 -173 15
-17 9 -32 21 -34 28 -2 7 -9 28 -16 47 -6 19 -16 60 -22 90 -5 30 -14 57 -19
61 -7 4 -8 24 -4 51 4 25 2 61 -3 81 -8 28 -7 37 4 41 7 3 18 -3 24 -12 9 -15
11 -16 22 -1 20 25 67 36 143 35 60 -1 78 -6 125 -34 30 -18 67 -42 81 -53 79
-62 264 21 285 129 4 20 2 38 -7 48 -20 24 -85 54 -119 54 -45 0 -93 23 -181
87 -102 73 -112 89 -104 161 7 63 20 92 39 92 7 0 35 28 61 63 69 88 156 167
222 202 35 18 63 41 70 56 7 15 24 30 37 33 19 5 24 14 29 53 3 27 1 53 -4 58
-6 6 -77 11 -159 13 l-150 3 -1 -53 c-2 -175 -35 -242 -129 -263 -19 -4 -41
-16 -49 -27 -39 -56 -224 -69 -261 -18 -8 11 -18 20 -23 20 -5 0 -21 9 -36 19
-15 11 -42 22 -61 26 -45 8 -65 -13 -105 -109 -48 -117 -99 -159 -192 -159
-84 0 -157 62 -170 146 -3 18 -6 39 -8 47 -4 27 25 95 56 133 30 37 129 94
212 123 21 8 73 17 115 20 53 4 92 14 127 32 50 25 125 32 198 19 27 -6 113
17 132 35 11 10 -1113 10 -1165 -1 -20 -4 -34 -13 -36 -24 -4 -27 23 -128 46
-172 11 -21 20 -45 20 -53 0 -19 19 -36 67 -60 58 -30 74 -80 75 -224 0 -51
-7 -94 -19 -130 -11 -29 -19 -66 -19 -83 1 -26 8 -33 67 -61 36 -18 76 -44 88
-59 27 -35 42 -93 39 -148 -2 -36 -10 -50 -54 -94 -41 -41 -60 -53 -83 -53
-39 0 -111 -31 -111 -47 0 -28 -34 -31 -98 -8 -73 27 -143 72 -221 145 l-53
50 4 58 c3 35 17 82 36 123 43 91 53 139 35 174 -21 39 -11 88 31 151 20 29
32 55 28 57 -8 4 -32 2 -113 -8 -98 -12 -143 27 -164 140 -16 83 -11 144 15
169 11 11 52 38 91 61 132 74 121 95 -48 102 l-119 5 -2 -77 c-4 -124 -55
-212 -146 -250 -39 -16 -81 -2 -98 33 -7 14 -35 42 -63 61 -44 32 -56 36 -111
36 -54 0 -68 -4 -107 -32 -52 -38 -101 -43 -138 -14 -36 27 -51 30 -79 14 -30
-17 -70 -72 -70 -96 0 -8 -4 -18 -9 -22 -15 -9 -80 64 -90 101 -5 18 -20 48
-34 66 l-26 33 25 60 c14 33 28 66 31 73 4 10 -101 13 -558 11 -311 0 -576 -3
-591 -6 -24 -5 -26 -8 -21 -39 6 -37 -16 -74 -45 -74 -7 0 -26 -12 -41 -27
-37 -37 -170 -120 -222 -138 -56 -20 -105 -19 -170 4 -78 27 -128 54 -204 110
-59 44 -69 48 -96 41 -64 -19 -105 -66 -119 -138 -25 -125 -33 -148 -57 -180
-14 -19 -48 -43 -78 -56 -29 -13 -72 -43 -96 -66 -52 -49 -96 -73 -166 -89
-28 -7 -85 -32 -125 -57 -87 -52 -129 -57 -171 -19 -15 14 -27 30 -27 34 0 5
-16 29 -36 53 -56 66 -81 138 -64 183 29 76 171 114 240 65 40 -29 100 -37
100 -15 0 8 7 15 16 15 9 0 -3 14 -27 33 -46 34 -126 145 -136 187 -12 53 -43
89 -86 101 -53 14 -97 7 -144 -25 -66 -45 -133 -30 -222 49 -34 30 -66 55 -71
55 -14 0 -26 -31 -29 -74 -5 -69 -16 -83 -93 -122 -40 -20 -87 -47 -105 -60
-27 -20 -36 -22 -59 -14 -34 13 -39 6 -48 -63 -5 -31 -16 -61 -32 -80 -13 -15
-27 -41 -30 -55 -10 -40 -33 -63 -53 -53 -9 5 -47 7 -84 5 -61 -4 -70 -2 -92
20 -29 29 -34 87 -20 222 15 141 118 211 251 169 62 -19 80 -16 94 19 5 13 14
27 19 31 19 11 12 42 -10 48 -11 3 -237 6 -500 7 l-480 1 7 -28 c3 -15 18 -46
33 -68 30 -44 44 -77 61 -142 8 -34 7 -54 -5 -98 -8 -30 -22 -79 -30 -107 -8
-29 -17 -82 -20 -118 -12 -157 -32 -208 -108 -282 -66 -64 -92 -129 -107 -260
-13 -113 -37 -170 -99 -228 -47 -46 -181 -110 -229 -110 -44 0 -124 101 -138
174 -10 52 -28 77 -69 95 -24 10 -61 37 -84 60 -25 25 -53 43 -73 46 -18 3
-46 19 -63 36 -25 24 -30 37 -29 74 1 46 24 92 52 103 9 3 24 15 33 25 12 15
27 19 69 18 29 0 55 -3 58 -6 13 -13 42 21 58 67 15 43 18 82 17 205 l-2 151
-28 28 c-25 25 -34 28 -85 26 -46 -2 -61 1 -78 18 -11 11 -20 29 -20 39 0 11
-8 39 -19 63 -18 43 -18 44 4 118 20 65 21 77 9 86 -11 9 -141 12 -448 13
l-433 2 -13 -74 c-16 -93 -16 -104 -6 -145 6 -27 3 -40 -18 -73 -15 -21 -31
-40 -36 -40 -6 -1 -16 -2 -22 -3 -21 -3 -56 15 -63 32 -3 8 -8 38 -11 66 -5
51 -6 64 -20 166 -5 30 -7 58 -6 63 1 4 -196 7 -439 7 l-441 0 4 -2114z m4111
1549 c32 -8 59 -15 61 -15 8 0 87 -111 113 -159 25 -48 84 -105 167 -164 44
-31 34 -54 -71 -157 -98 -95 -184 -155 -236 -164 -37 -6 -113 -45 -135 -69
-16 -18 -16 -20 12 -42 28 -22 30 -29 34 -108 4 -78 2 -86 -16 -96 -30 -16
-57 24 -71 101 -8 45 -17 68 -33 80 -13 9 -23 23 -24 30 -1 29 -16 57 -39 72
-27 18 -31 47 -15 106 5 19 12 64 14 100 4 56 2 71 -19 105 -64 107 -67 115
-67 200 0 45 4 91 10 102 6 11 34 30 62 42 28 12 56 31 63 42 11 18 19 20 72
15 33 -3 86 -12 118 -21z m-2562 -520 c26 -55 24 -88 -11 -202 -37 -120 -84
-217 -117 -243 l-25 -20 -33 28 c-62 52 -68 92 -31 204 14 40 28 89 31 108 14
81 60 179 90 190 30 12 75 -19 96 -65z m340 -161 c64 -29 80 -54 63 -102 -10
-28 -58 -50 -111 -51 -26 -1 -35 5 -54 35 -32 52 -33 87 -4 118 30 32 34 32
106 0z m7395 -279 c8 -11 20 -27 27 -35 7 -9 24 -38 37 -65 13 -28 29 -57 36
-65 16 -19 44 -99 44 -127 0 -56 -48 -111 -107 -119 -6 -1 -28 -7 -47 -14 -42
-13 -66 -4 -105 43 -32 38 -83 122 -106 173 -9 22 -30 65 -45 98 -32 64 -30
79 16 115 22 18 38 20 131 18 92 -2 106 -4 119 -22z m1220 -320 c16 -8 39 -24
52 -35 12 -12 47 -32 76 -46 74 -34 81 -43 61 -90 -9 -21 -33 -61 -54 -88 -21
-28 -50 -72 -65 -98 -29 -50 -35 -53 -106 -63 -25 -3 -61 -8 -80 -11 -83 -13
-84 -12 -91 31 -6 35 -4 43 20 67 25 24 38 60 57 158 9 45 54 150 65 150 4 0
11 9 14 20 8 24 13 24 51 5z m-6538 -312 c-3 -20 19 -22 61 -9 20 7 23 6 17
-9 -8 -22 19 -65 40 -65 8 0 13 4 9 9 -8 15 13 23 22 9 4 -7 22 -53 39 -103
l30 -90 42 -9 c47 -10 50 -15 24 -40 -18 -15 -21 -15 -47 6 -22 17 -31 19 -44
9 -24 -18 -94 -51 -108 -51 -7 0 -13 5 -13 10 0 6 -22 10 -50 10 -34 0 -50 4
-50 13 0 9 -12 11 -41 9 -35 -4 -41 -1 -46 17 l-6 22 -14 -21 -15 -21 -15 20
c-18 26 -9 41 23 41 30 0 64 33 64 63 0 40 12 68 26 63 13 -5 19 6 15 28 -1 5
5 6 14 3 8 -4 15 -1 15 6 0 15 -18 43 -23 37 -2 -3 -11 -16 -20 -30 -25 -36
-22 0 3 50 21 40 53 56 48 23z m375 -366 c66 -28 127 -72 127 -93 0 -8 14 -23
31 -33 l31 -19 -26 -23 c-32 -28 -33 -43 -3 -37 16 3 28 -4 44 -29 l22 -33
-23 0 c-23 0 -87 55 -118 102 -12 19 -30 28 -60 33 -24 4 -51 15 -60 24 -36
34 -49 42 -66 40 -29 -3 -38 1 -23 10 12 8 12 12 2 25 -16 19 -8 46 14 46 8 0
15 5 15 11 0 13 14 10 93 -24z m-3813 -412 c0 -8 9 -20 20 -27 33 -21 24 -53
-33 -115 -29 -32 -70 -79 -91 -106 -37 -46 -98 -87 -132 -87 -28 0 -72 32 -92
69 l-21 37 32 14 c49 21 131 84 152 116 26 41 48 61 101 89 54 29 64 30 64 10z
m8777 -520 c20 -8 46 -25 59 -38 12 -12 27 -26 33 -32 5 -5 25 -27 43 -48 18
-20 53 -47 77 -60 25 -12 50 -31 55 -42 6 -11 12 -22 13 -24 2 -2 9 1 17 8 18
15 61 -1 78 -29 7 -11 21 -20 30 -20 10 0 18 -5 18 -11 0 -5 -4 -7 -10 -4 -5
3 -10 -1 -10 -9 0 -9 9 -21 20 -28 11 -7 20 -18 20 -24 0 -31 -150 -27 -205 5
-20 12 -45 23 -54 24 -10 1 -31 17 -47 34 -16 18 -74 55 -129 84 -55 28 -110
61 -122 72 -33 33 -34 74 -3 125 23 37 57 42 117 17z m-3227 -548 c70 -25 151
-77 200 -127 46 -47 103 -128 105 -149 1 -9 6 -24 10 -34 4 -10 5 -21 2 -24
-4 -3 5 -25 20 -50 14 -24 23 -46 21 -49 -5 -4 -53 37 -173 145 -56 50 -110
88 -195 137 -47 26 -86 49 -88 50 -1 1 6 24 17 53 l21 51 -33 14 -32 15 35 -6
c19 -3 60 -15 90 -26z m-2140 -1447 c0 -5 9 -10 20 -10 40 0 88 -27 92 -52 2
-19 12 -25 51 -32 34 -7 54 -6 71 4 13 7 36 13 49 13 29 0 82 -35 97 -63 6
-11 32 -32 58 -47 47 -28 222 -170 222 -182 0 -3 38 -46 85 -94 46 -48 87 -97
90 -107 4 -11 11 -20 16 -20 5 0 9 -7 9 -15 0 -7 8 -18 17 -23 16 -9 15 -12
-1 -37 l-18 -28 -15 24 c-8 14 -29 33 -45 42 -16 9 -32 26 -35 37 -3 11 -13
22 -24 25 -10 3 -27 21 -39 40 -24 40 -178 185 -195 185 -6 0 -20 9 -30 20
-10 11 -22 20 -27 20 -5 0 -23 14 -41 30 -18 17 -44 36 -60 43 -15 6 -30 20
-33 30 -9 30 -66 47 -156 47 l-82 0 -63 66 c-65 68 -72 79 -50 87 21 9 37 7
37 -3z m1160 -85 c6 -29 6 -29 18 -9 26 47 114 -11 158 -103 l27 -57 -22 -14
-21 -14 21 -30 c17 -23 20 -38 15 -69 -6 -38 -5 -39 14 -29 19 10 20 9 14 -65
-6 -70 -5 -75 13 -69 14 6 16 4 6 -6 -18 -20 -78 6 -62 27 9 11 7 18 -9 36
-25 27 -51 87 -45 105 6 16 -5 15 -23 -3 -25 -25 -51 -18 -57 14 -4 18 -18 36
-36 47 -27 16 -28 19 -13 32 9 7 11 11 4 7 -22 -11 -99 -7 -124 6 l-23 12 28
10 c19 6 27 15 27 32 0 26 -29 48 -52 40 -14 -5 -55 71 -44 83 30 29 86 50
131 49 47 -2 50 -4 55 -32z m4180 -183 c50 -24 63 -60 69 -188 4 -70 11 -117
19 -127 11 -13 10 -18 -10 -30 -13 -8 -36 -18 -52 -21 -15 -4 -51 -22 -79 -41
-29 -19 -56 -35 -62 -35 -32 -1 -135 -129 -135 -167 0 -14 -13 -38 -31 -55
-28 -28 -34 -30 -81 -25 -28 4 -55 12 -59 19 -5 7 -7 52 -5 100 3 74 7 94 28
125 14 21 36 67 48 103 12 36 32 83 44 105 13 22 40 72 61 110 48 90 82 134
109 145 28 12 92 3 136 -18z m-5530 -156 c14 -5 46 -29 72 -53 56 -51 67 -56
207 -89 58 -13 115 -31 126 -38 20 -13 45 -74 45 -110 0 -9 -12 -21 -27 -27
-32 -12 -196 -15 -233 -5 -19 5 -21 5 -10 -3 32 -22 -3 -22 -72 0 -104 33
-227 99 -243 129 -14 27 -34 87 -40 120 -2 13 8 34 27 56 28 32 36 35 77 33
25 -1 57 -7 71 -13z m-413 -18 c8 -7 23 -30 34 -52 10 -23 42 -65 70 -94 28
-29 61 -69 74 -87 12 -19 37 -46 54 -61 34 -28 41 -67 17 -99 -14 -19 -15 -19
-92 1 l-79 20 -3 52 c-2 37 -7 52 -18 52 -7 0 -13 5 -11 12 1 7 -4 12 -12 13
-8 0 -15 14 -17 33 -5 43 -30 102 -44 102 -6 0 -18 -7 -26 -15 -8 -8 -21 -12
-29 -9 -17 7 -20 24 -5 24 17 0 11 25 -10 43 -25 21 -25 28 1 62 18 22 27 26
52 21 17 -3 37 -11 44 -18z m1028 -320 c48 -19 175 -108 175 -123 0 -24 17
-25 44 -4 26 20 31 16 27 -19 -5 -37 39 -46 148 -27 34 6 41 4 41 -9 0 -9 5
-25 11 -35 7 -10 9 -30 5 -44 -5 -20 -13 -27 -32 -27 -14 0 -23 -4 -19 -10 3
-5 26 -10 50 -10 24 0 47 -4 50 -10 3 -5 -2 -10 -13 -10 -16 0 -19 -7 -18 -50
0 -32 -6 -56 -17 -68 -9 -10 -19 -35 -22 -55 -6 -33 -4 -38 20 -47 41 -16 20
-34 -29 -25 -22 4 -54 7 -71 7 -16 -1 -43 -1 -58 -1 -16 0 -43 -7 -60 -16 -38
-19 -35 -19 -39 8 -2 15 -11 23 -28 26 -29 4 -40 17 -35 43 4 21 1 22 -24 9
-13 -7 -25 -4 -46 13 l-29 23 27 7 c19 4 26 12 24 27 -1 16 6 24 33 32 28 10
38 20 48 51 16 49 17 122 3 159 -14 36 -23 34 -45 -8 -17 -32 -18 -36 -3 -59
15 -23 15 -25 -7 -40 -24 -15 -90 -25 -101 -14 -3 3 -14 36 -24 73 -23 81 -42
105 -71 87 -27 -17 -60 -15 -81 4 -16 14 -24 14 -82 1 -38 -8 -70 -11 -78 -6
-12 7 -11 9 1 9 33 1 -15 18 -67 24 -38 4 -56 1 -66 -9 -12 -12 -18 -12 -42 1
-15 8 -39 14 -54 14 -38 0 -150 -52 -157 -72 -3 -10 -10 -16 -15 -12 -6 3 -8
11 -6 17 3 7 -4 27 -15 45 -19 31 -19 34 -3 52 11 12 25 17 41 14 14 -3 42 0
62 6 33 9 39 8 55 -12 l18 -21 14 20 c19 28 79 37 305 47 64 3 130 11 147 18
43 18 72 20 108 6z m5205 -653 c9 -8 22 -15 29 -15 6 0 30 -12 52 -27 l40 -27
94 15 c116 19 132 14 140 -44 11 -71 4 -90 -39 -111 -48 -23 -158 -27 -228 -7
-41 12 -49 11 -69 -3 -40 -27 -70 -20 -125 32 -59 54 -74 79 -74 119 0 40 18
61 65 78 45 17 90 12 115 -10z m-661 -121 c36 -7 94 -74 64 -74 -16 -1 -15 -3
5 -19 28 -25 28 -48 -2 -80 -27 -30 -66 -136 -66 -181 0 -19 -5 -30 -14 -30
-7 0 -43 -16 -80 -35 -37 -19 -73 -35 -80 -35 -29 0 -111 -44 -151 -81 -46
-42 -87 -55 -93 -27 -2 10 5 19 19 23 21 7 19 10 -25 32 -46 23 -47 25 -31 43
11 13 15 28 11 43 -8 32 29 69 101 103 69 33 109 90 158 227 12 33 22 47 35
47 11 0 25 10 31 23 21 39 23 40 118 21z m302 -476 c11 -13 28 -40 39 -60 22
-40 45 -56 127 -82 56 -19 65 -32 65 -94 0 -26 -7 -42 -23 -55 -21 -17 -24
-17 -27 -3 -2 10 -19 18 -54 22 -27 4 -52 13 -55 20 -6 17 -69 54 -91 54 -34
0 -122 43 -122 60 0 9 -9 25 -20 35 -11 10 -20 24 -20 32 0 7 -9 21 -20 30
-25 22 -10 32 45 33 22 1 54 7 70 15 44 20 64 18 86 -7z m-1861 -73 c16 -8 34
-23 39 -33 12 -22 4 -76 -15 -114 -8 -15 -14 -30 -14 -33 0 -3 0 -9 0 -14 0
-28 -179 -43 -210 -18 -53 41 -67 112 -25 123 15 4 25 13 25 25 0 58 131 100
200 64z"/>
<path d="M11118 10797 c-59 -33 -127 -90 -129 -107 -1 -6 -2 -14 -3 -19 0 -5
-4 -13 -8 -17 -11 -11 -10 -52 2 -75 7 -13 21 -19 43 -19 35 0 127 41 148 66
14 17 25 204 12 204 -4 0 -34 -15 -65 -33z"/>
<path d="M5456 8395 c3 -16 13 -37 21 -47 10 -11 11 -18 3 -23 -11 -7 -77 -13
-142 -14 -42 -1 -44 -5 -27 -66 10 -34 13 -37 23 -23 11 15 20 13 92 -26 43
-24 79 -50 79 -57 0 -10 -20 -15 -75 -17 -83 -4 -105 -14 -90 -41 6 -12 22
-18 47 -19 23 -1 43 -9 53 -20 9 -12 31 -20 58 -21 41 -2 76 -10 116 -27 18
-7 19 -6 4 14 -17 24 -12 76 6 69 6 -3 31 -13 56 -23 57 -22 56 -21 37 -41
-15 -17 -13 -18 26 -19 23 -1 66 -8 95 -15 37 -9 58 -10 70 -3 28 17 127 16
201 -2 77 -18 131 -13 111 11 -6 7 -29 16 -51 20 -21 4 -39 11 -39 16 0 12 33
27 48 22 18 -7 15 17 -5 40 -17 18 -17 19 2 33 10 8 29 14 42 14 13 0 23 3 23
8 0 10 -87 48 -130 57 -44 9 -90 32 -113 56 -25 27 -36 24 -31 -8 4 -27 3 -27
-11 -9 -8 11 -15 29 -16 40 0 20 -1 20 -11 -2 -7 -13 -17 -21 -26 -17 -7 3
-18 5 -23 5 -5 0 -9 5 -9 10 0 6 7 10 15 10 8 0 15 4 15 9 0 25 -60 44 -175
55 -117 12 -160 18 -168 23 -5 3 -19 6 -33 8 -14 1 -36 13 -50 26 l-26 24 8
-30z"/>
<path d="M8199 6047 c-37 -18 -79 -60 -79 -78 0 -5 9 -13 21 -19 25 -14 77 2
99 30 17 22 66 34 76 19 15 -26 37 -152 39 -233 3 -144 -43 -393 -90 -487 -69
-136 -139 -229 -191 -254 -24 -11 -33 -20 -26 -27 14 -14 105 36 129 70 10 14
32 39 49 56 36 36 154 190 154 201 0 5 11 22 24 39 32 42 66 111 66 133 0 10
6 27 14 38 17 26 33 78 41 134 4 23 10 54 16 68 12 33 23 196 15 237 -4 23
-13 36 -27 39 -12 3 -18 10 -15 16 13 21 -40 33 -156 35 -102 2 -126 -1 -159
-17z"/>
<path d="M7934 5883 c-15 -21 -41 -51 -56 -66 -77 -78 -133 -172 -121 -203 5
-13 15 -15 59 -9 61 7 66 2 78 -85 4 -25 10 -61 15 -81 4 -20 7 -72 5 -115
l-2 -79 22 38 c34 55 37 55 30 1 -10 -79 -8 -95 14 -116 l20 -21 46 27 c41 24
47 33 66 92 11 36 22 89 24 117 3 29 9 66 14 82 11 38 7 124 -7 138 -6 6 -11
19 -11 28 0 10 -4 19 -9 21 -14 5 -86 149 -105 211 -22 69 -41 74 -82 20z"/>
<path d="M170 5293 c-19 -7 -97 -62 -126 -89 -36 -33 -43 -65 -42 -196 0 -99
4 -130 19 -160 11 -21 19 -48 19 -60 0 -13 9 -29 20 -36 11 -7 20 -19 20 -27
0 -9 12 -20 26 -25 36 -14 47 -12 40 6 -21 56 -20 62 23 74 47 13 64 34 84
110 9 30 25 86 36 123 l20 69 -20 51 c-32 83 -57 133 -74 151 -17 17 -21 18
-45 9z"/>
<path d="M10995 2879 c-4 -5 -4 -17 -1 -27 5 -14 -1 -17 -29 -19 -75 -3 -90
-6 -136 -29 -58 -30 -95 -31 -109 -4 -6 11 -19 20 -30 20 -10 0 -30 5 -44 11
-22 10 -31 8 -68 -16 -63 -41 -96 -81 -128 -152 -32 -71 -105 -150 -147 -158
-16 -3 -50 -12 -78 -20 -62 -17 -103 -24 -179 -29 -100 -7 -101 -34 -4 -91 35
-21 90 -59 123 -84 33 -26 81 -62 108 -80 26 -18 45 -36 42 -41 -7 -11 5 -18
43 -25 17 -3 43 -10 57 -15 15 -6 30 -8 35 -5 9 6 25 81 22 105 -1 8 -6 44
-12 80 -10 62 -9 65 15 90 25 25 28 25 193 26 211 1 238 10 300 104 43 64 67
129 77 210 3 25 8 66 11 91 4 29 2 49 -5 53 -19 12 -50 15 -56 5z"/>
<path d="M10798 2027 c-107 -56 -164 -60 -243 -18 -32 17 -65 31 -74 31 -10 0
-21 4 -27 10 -6 6 -29 0 -63 -18 -39 -19 -55 -23 -58 -14 -5 14 -59 16 -68 2
-3 -5 -14 -10 -23 -10 -9 -1 -33 -14 -52 -30 -19 -17 -39 -30 -45 -30 -24 0
-138 -153 -205 -275 -18 -33 -54 -98 -80 -145 -46 -84 -140 -259 -167 -312
-18 -34 -24 -123 -11 -160 6 -18 21 -31 44 -38 53 -18 62 -46 59 -187 -1 -67
1 -144 6 -170 11 -58 76 -196 113 -240 24 -28 34 -33 72 -33 24 0 44 3 45 8 4
47 11 67 23 74 23 13 37 44 42 91 7 59 9 67 23 109 13 40 26 48 86 55 22 3 43
10 46 15 20 31 48 -75 42 -162 -4 -49 -34 -125 -57 -141 -13 -10 -107 -2 -119
10 -6 6 -20 11 -30 11 -17 0 -18 -2 -6 -16 11 -14 9 -19 -14 -36 -18 -13 -27
-29 -27 -47 0 -15 -5 -32 -12 -39 -10 -9 -8 -16 5 -29 11 -12 38 -17 89 -20
40 -1 110 -5 155 -7 66 -4 86 -2 98 11 22 22 42 64 48 100 7 42 13 50 47 68
16 8 37 31 46 50 19 40 39 45 50 13 8 -28 7 -159 -2 -201 -4 -20 -2 -32 7 -38
8 -5 153 -9 322 -9 l309 0 -4 744 c-2 409 -6 747 -9 751 -4 3 -23 3 -42 0 -26
-5 -37 -13 -42 -32 -5 -21 -10 -24 -42 -21 -51 5 -72 37 -79 119 -4 44 -2 69
5 73 20 13 12 54 -21 108 -51 83 -51 83 -160 25z m128 -379 c4 -6 2 -14 -4
-16 -18 -6 -14 -19 8 -25 19 -5 20 -14 20 -156 l0 -151 26 -12 c19 -9 24 -17
20 -32 -3 -12 -6 -27 -6 -34 0 -7 -17 -28 -37 -47 -25 -23 -42 -49 -48 -77 -7
-28 -17 -44 -29 -46 -15 -3 -16 -1 -7 16 10 18 16 97 12 169 0 17 -7 38 -14
45 -18 18 -53 105 -61 151 -6 33 -2 48 32 106 21 37 42 79 46 94 7 28 29 36
42 15z"/>
<path d="M9210 2032 c-8 -2 -26 -15 -40 -27 -14 -12 -40 -27 -58 -33 -48 -16
-112 -70 -128 -107 -18 -44 -10 -274 12 -316 15 -30 16 -30 92 -28 81 2 174
22 199 42 42 35 102 131 112 180 6 28 14 63 17 77 3 14 8 43 11 66 5 37 3 42
-18 47 -13 4 -37 7 -54 7 -21 0 -26 3 -16 9 10 7 8 10 -10 16 -41 12 -73 36
-59 45 15 9 -38 29 -60 22z"/>
</g>
</svg>
